<mxfile host="app.diagrams.net" agent="Mozilla/5.0 (Windows NT 10.0; Win64; x64) AppleWebKit/537.36 (KHTML, like Gecko) Chrome/137.0.0.0 Safari/537.36" version="27.1.6">
  <diagram name="Page-1" id="kbhb2sdRCpi7IZYhaREL">
    <mxGraphModel grid="1" page="1" gridSize="10" guides="1" tooltips="1" connect="1" arrows="1" fold="1" pageScale="1" pageWidth="850" pageHeight="1100" math="0" shadow="0">
      <root>
        <mxCell id="0" />
        <mxCell id="1" parent="0" />
        <mxCell id="WwBUQmElRAqw0r_cfJ5v-3" value="AWS Cloud" style="points=[[0,0],[0.25,0],[0.5,0],[0.75,0],[1,0],[1,0.25],[1,0.5],[1,0.75],[1,1],[0.75,1],[0.5,1],[0.25,1],[0,1],[0,0.75],[0,0.5],[0,0.25]];outlineConnect=0;gradientColor=none;html=1;whiteSpace=wrap;fontSize=12;fontStyle=0;container=1;pointerEvents=0;collapsible=0;recursiveResize=0;shape=mxgraph.aws4.group;grIcon=mxgraph.aws4.group_aws_cloud_alt;strokeColor=#232F3E;fillColor=none;verticalAlign=top;align=left;spacingLeft=30;fontColor=#232F3E;dashed=0;" vertex="1" parent="1">
          <mxGeometry x="40" y="80" width="490" height="410" as="geometry" />
        </mxCell>
        <mxCell id="WwBUQmElRAqw0r_cfJ5v-5" value="euro-north1&amp;nbsp;" style="points=[[0,0],[0.25,0],[0.5,0],[0.75,0],[1,0],[1,0.25],[1,0.5],[1,0.75],[1,1],[0.75,1],[0.5,1],[0.25,1],[0,1],[0,0.75],[0,0.5],[0,0.25]];outlineConnect=0;gradientColor=none;html=1;whiteSpace=wrap;fontSize=12;fontStyle=0;container=1;pointerEvents=0;collapsible=0;recursiveResize=0;shape=mxgraph.aws4.group;grIcon=mxgraph.aws4.group_region;strokeColor=#00A4A6;fillColor=none;verticalAlign=top;align=left;spacingLeft=30;fontColor=#147EBA;dashed=1;" vertex="1" parent="WwBUQmElRAqw0r_cfJ5v-3">
          <mxGeometry x="30" y="30" width="430" height="350" as="geometry" />
        </mxCell>
        <mxCell id="WwBUQmElRAqw0r_cfJ5v-6" value="VPC" style="points=[[0,0],[0.25,0],[0.5,0],[0.75,0],[1,0],[1,0.25],[1,0.5],[1,0.75],[1,1],[0.75,1],[0.5,1],[0.25,1],[0,1],[0,0.75],[0,0.5],[0,0.25]];outlineConnect=0;gradientColor=none;html=1;whiteSpace=wrap;fontSize=12;fontStyle=0;container=1;pointerEvents=0;collapsible=0;recursiveResize=0;shape=mxgraph.aws4.group;grIcon=mxgraph.aws4.group_vpc2;strokeColor=#8C4FFF;fillColor=none;verticalAlign=top;align=left;spacingLeft=30;fontColor=#AAB7B8;dashed=0;" vertex="1" parent="WwBUQmElRAqw0r_cfJ5v-5">
          <mxGeometry x="20" y="30" width="380" height="300" as="geometry" />
        </mxCell>
        <mxCell id="WwBUQmElRAqw0r_cfJ5v-9" value="Public subnet" style="points=[[0,0],[0.25,0],[0.5,0],[0.75,0],[1,0],[1,0.25],[1,0.5],[1,0.75],[1,1],[0.75,1],[0.5,1],[0.25,1],[0,1],[0,0.75],[0,0.5],[0,0.25]];outlineConnect=0;gradientColor=none;html=1;whiteSpace=wrap;fontSize=12;fontStyle=0;container=1;pointerEvents=0;collapsible=0;recursiveResize=0;shape=mxgraph.aws4.group;grIcon=mxgraph.aws4.group_security_group;grStroke=0;strokeColor=#7AA116;fillColor=#F2F6E8;verticalAlign=top;align=left;spacingLeft=30;fontColor=#248814;dashed=0;" vertex="1" parent="WwBUQmElRAqw0r_cfJ5v-6">
          <mxGeometry x="30" y="30" width="150" height="250" as="geometry" />
        </mxCell>
        <mxCell id="WwBUQmElRAqw0r_cfJ5v-14" value="" style="verticalLabelPosition=bottom;html=1;verticalAlign=top;strokeWidth=1;align=center;outlineConnect=0;dashed=0;outlineConnect=0;shape=mxgraph.aws3d.elasticLoadBalancing;fillColor=#ECECEC;strokeColor=#5E5E5E;aspect=fixed;" vertex="1" parent="WwBUQmElRAqw0r_cfJ5v-9">
          <mxGeometry x="50" y="160" width="39.83" height="38.17" as="geometry" />
        </mxCell>
        <mxCell id="WwBUQmElRAqw0r_cfJ5v-10" value="" style="whiteSpace=wrap;html=1;" vertex="1" parent="WwBUQmElRAqw0r_cfJ5v-6">
          <mxGeometry x="230" y="30" width="120" height="250" as="geometry" />
        </mxCell>
        <mxCell id="WwBUQmElRAqw0r_cfJ5v-11" value="EKS Cluster" style="text;strokeColor=none;align=center;fillColor=none;html=1;verticalAlign=middle;whiteSpace=wrap;rounded=0;" vertex="1" parent="WwBUQmElRAqw0r_cfJ5v-6">
          <mxGeometry x="260" y="30" width="60" height="30" as="geometry" />
        </mxCell>
        <mxCell id="WwBUQmElRAqw0r_cfJ5v-12" value="" style="aspect=fixed;sketch=0;html=1;dashed=0;whitespace=wrap;verticalLabelPosition=bottom;verticalAlign=top;fillColor=#2875E2;strokeColor=#ffffff;points=[[0.005,0.63,0],[0.1,0.2,0],[0.9,0.2,0],[0.5,0,0],[0.995,0.63,0],[0.72,0.99,0],[0.5,1,0],[0.28,0.99,0]];shape=mxgraph.kubernetes.icon2;prIcon=pod" vertex="1" parent="WwBUQmElRAqw0r_cfJ5v-6">
          <mxGeometry x="265" y="60" width="50" height="48" as="geometry" />
        </mxCell>
        <mxCell id="WwBUQmElRAqw0r_cfJ5v-15" value="" style="image;aspect=fixed;perimeter=ellipsePerimeter;html=1;align=center;shadow=0;dashed=0;fontColor=#4277BB;labelBackgroundColor=default;fontSize=12;spacingTop=3;image=img/lib/ibm/vpc/LoadBalancer.svg;" vertex="1" parent="WwBUQmElRAqw0r_cfJ5v-6">
          <mxGeometry x="250" y="180" width="60" height="60" as="geometry" />
        </mxCell>
        <mxCell id="WwBUQmElRAqw0r_cfJ5v-18" value="" style="edgeStyle=orthogonalEdgeStyle;html=1;endArrow=block;elbow=vertical;startArrow=none;endFill=1;strokeColor=#545B64;rounded=0;" edge="1" parent="WwBUQmElRAqw0r_cfJ5v-6">
          <mxGeometry width="100" relative="1" as="geometry">
            <mxPoint x="160" y="210" as="sourcePoint" />
            <mxPoint x="260" y="210" as="targetPoint" />
            <Array as="points">
              <mxPoint x="120" y="210" />
              <mxPoint x="120" y="210" />
            </Array>
          </mxGeometry>
        </mxCell>
        <mxCell id="WwBUQmElRAqw0r_cfJ5v-19" value="" style="edgeStyle=orthogonalEdgeStyle;html=1;endArrow=block;elbow=vertical;startArrow=none;endFill=1;strokeColor=#545B64;rounded=0;exitX=0.25;exitY=0;exitDx=0;exitDy=0;entryX=0.72;entryY=0.99;entryDx=0;entryDy=0;entryPerimeter=0;" edge="1" parent="WwBUQmElRAqw0r_cfJ5v-6" source="WwBUQmElRAqw0r_cfJ5v-15" target="WwBUQmElRAqw0r_cfJ5v-12">
          <mxGeometry width="100" relative="1" as="geometry">
            <mxPoint x="240" y="160" as="sourcePoint" />
            <mxPoint x="340" y="160" as="targetPoint" />
          </mxGeometry>
        </mxCell>
        <mxCell id="WwBUQmElRAqw0r_cfJ5v-16" value="" style="outlineConnect=0;dashed=0;verticalLabelPosition=bottom;verticalAlign=top;align=center;html=1;shape=mxgraph.aws3.internet_2;fillColor=#D2D3D3;gradientColor=none;" vertex="1" parent="1">
          <mxGeometry x="160" y="560" width="79.5" height="54" as="geometry" />
        </mxCell>
        <mxCell id="WwBUQmElRAqw0r_cfJ5v-17" value="" style="endArrow=classic;html=1;rounded=0;" edge="1" parent="1" target="WwBUQmElRAqw0r_cfJ5v-14">
          <mxGeometry width="50" height="50" relative="1" as="geometry">
            <mxPoint x="189.5" y="560" as="sourcePoint" />
            <mxPoint x="239.5" y="510" as="targetPoint" />
            <Array as="points">
              <mxPoint x="189.5" y="550" />
            </Array>
          </mxGeometry>
        </mxCell>
        <mxCell id="WwBUQmElRAqw0r_cfJ5v-34" value="Project Zone / Cloud Service Provider" style="shape=rect;strokeColor=none;strokeWidth=2;shadow=0;gradientColor=none;fontColor=#757575;align=left;html=1;fontStyle=0;spacingTop=3;fillColor=#F6F6F6;verticalAlign=top;fontSize=10;spacingLeft=10;spacing=0;" vertex="1" parent="1">
          <mxGeometry x="790" y="50" width="530" height="490" as="geometry" />
        </mxCell>
        <mxCell id="WwBUQmElRAqw0r_cfJ5v-35" value="Logical Grouping of Services / Instances" style="shape=rect;strokeColor=none;strokeWidth=2;shadow=0;gradientColor=none;fontColor=#757575;align=left;html=1;fontStyle=0;spacingTop=3;fillColor=#E3F2FD;verticalAlign=top;fontSize=10;spacingLeft=10;spacing=0;" vertex="1" parent="WwBUQmElRAqw0r_cfJ5v-34">
          <mxGeometry width="250" height="180" relative="1" as="geometry">
            <mxPoint x="10" y="50" as="offset" />
          </mxGeometry>
        </mxCell>
        <mxCell id="WwBUQmElRAqw0r_cfJ5v-36" value="Kubernetes cluster" style="shape=rect;strokeColor=none;strokeWidth=2;shadow=0;gradientColor=none;fontColor=#757575;align=left;html=1;fontStyle=0;spacingTop=3;fillColor=#FCE4EC;verticalAlign=top;fontSize=10;spacingLeft=10;spacing=0;" vertex="1" parent="WwBUQmElRAqw0r_cfJ5v-34">
          <mxGeometry width="250" height="120" relative="1" as="geometry">
            <mxPoint x="10" y="240" as="offset" />
          </mxGeometry>
        </mxCell>
        <mxCell id="WwBUQmElRAqw0r_cfJ5v-37" value="pod" style="shape=rect;strokeColor=none;strokeWidth=2;shadow=0;gradientColor=none;fontColor=#757575;align=left;html=1;fontStyle=0;spacingTop=3;fillColor=#E8F5E9;verticalAlign=top;fontSize=10;spacingLeft=10;spacing=0;" vertex="1" parent="WwBUQmElRAqw0r_cfJ5v-36">
          <mxGeometry width="210" height="60" relative="1" as="geometry">
            <mxPoint x="10" y="50" as="offset" />
          </mxGeometry>
        </mxCell>
        <mxCell id="WwBUQmElRAqw0r_cfJ5v-38" value="Account" style="shape=rect;strokeColor=none;strokeWidth=2;shadow=0;gradientColor=none;fontColor=#757575;align=left;html=1;fontStyle=0;spacingTop=3;fillColor=#E8EAF6;verticalAlign=top;fontSize=10;spacingLeft=10;spacing=0;" vertex="1" parent="WwBUQmElRAqw0r_cfJ5v-34">
          <mxGeometry width="250" height="60" relative="1" as="geometry">
            <mxPoint x="10" y="370" as="offset" />
          </mxGeometry>
        </mxCell>
        <mxCell id="WwBUQmElRAqw0r_cfJ5v-39" value="Region" style="shape=rect;strokeColor=none;strokeWidth=2;shadow=0;gradientColor=none;fontColor=#757575;align=left;html=1;fontStyle=0;spacingTop=3;fillColor=#ECEFF1;verticalAlign=top;fontSize=10;spacingLeft=10;spacing=0;" vertex="1" parent="WwBUQmElRAqw0r_cfJ5v-34">
          <mxGeometry width="250" height="310" relative="1" as="geometry">
            <mxPoint x="260" y="30" as="offset" />
          </mxGeometry>
        </mxCell>
        <mxCell id="WwBUQmElRAqw0r_cfJ5v-40" value="Zone" style="shape=rect;strokeColor=none;strokeWidth=2;shadow=0;gradientColor=none;fontColor=#757575;align=left;html=1;fontStyle=0;spacingTop=3;fillColor=#FFF3E0;verticalAlign=top;fontSize=10;spacingLeft=10;spacing=0;" vertex="1" parent="WwBUQmElRAqw0r_cfJ5v-39">
          <mxGeometry width="230" height="250" relative="1" as="geometry">
            <mxPoint x="10" y="50" as="offset" />
          </mxGeometry>
        </mxCell>
        <mxCell id="WwBUQmElRAqw0r_cfJ5v-41" value="Firewall" style="shape=rect;strokeColor=none;strokeWidth=2;shadow=0;gradientColor=none;fontColor=#757575;align=left;html=1;fontStyle=0;spacingTop=3;fillColor=#FBE9E7;verticalAlign=top;fontSize=10;spacingLeft=10;spacing=0;" vertex="1" parent="WwBUQmElRAqw0r_cfJ5v-40">
          <mxGeometry width="210" height="190" relative="1" as="geometry">
            <mxPoint x="10" y="50" as="offset" />
          </mxGeometry>
        </mxCell>
        <mxCell id="WwBUQmElRAqw0r_cfJ5v-42" value="Instance Group" style="shape=rect;strokeColor=none;strokeWidth=2;shadow=0;gradientColor=none;fontColor=#757575;align=left;html=1;fontStyle=0;spacingTop=3;fillColor=#F9FBE7;verticalAlign=top;fontSize=10;spacingLeft=10;spacing=0;" vertex="1" parent="WwBUQmElRAqw0r_cfJ5v-41">
          <mxGeometry width="190" height="60" relative="1" as="geometry">
            <mxPoint x="10" y="50" as="offset" />
          </mxGeometry>
        </mxCell>
        <mxCell id="WwBUQmElRAqw0r_cfJ5v-43" value="Replica Pool" style="shape=rect;strokeColor=none;strokeWidth=2;shadow=0;gradientColor=none;fontColor=#757575;align=left;html=1;fontStyle=0;spacingTop=3;fillColor=#E0F7FA;verticalAlign=top;fontSize=10;spacingLeft=10;spacing=0;" vertex="1" parent="WwBUQmElRAqw0r_cfJ5v-41">
          <mxGeometry width="190" height="60" relative="1" as="geometry">
            <mxPoint x="10" y="120" as="offset" />
          </mxGeometry>
        </mxCell>
        <mxCell id="WwBUQmElRAqw0r_cfJ5v-46" value="Optional Component" style="rounded=1;absoluteArcSize=1;arcSize=2;html=1;strokeColor=none;gradientColor=none;shadow=0;dashed=1;strokeColor=#4284F3;fontSize=10;fontColor=#9E9E9E;align=left;verticalAlign=top;spacing=0;spacingTop=3;fillColor=none;dashPattern=1 2;strokeWidth=2;fontStyle=0;spacingLeft=10;" vertex="1" parent="WwBUQmElRAqw0r_cfJ5v-34">
          <mxGeometry width="250" height="60" relative="1" as="geometry">
            <mxPoint x="270" y="370" as="offset" />
          </mxGeometry>
        </mxCell>
        <mxCell id="WwBUQmElRAqw0r_cfJ5v-44" value="Zone" style="shape=rect;strokeColor=none;strokeWidth=2;shadow=0;gradientColor=none;fontColor=#757575;align=left;html=1;fontStyle=0;spacingTop=3;fillColor=#FFF3E0;verticalAlign=top;fontSize=10;spacingLeft=10;spacing=0;" vertex="1" parent="WwBUQmElRAqw0r_cfJ5v-34">
          <mxGeometry width="230" height="120" relative="1" as="geometry">
            <mxPoint x="20" y="90" as="offset" />
          </mxGeometry>
        </mxCell>
        <mxCell id="WwBUQmElRAqw0r_cfJ5v-45" value="SubNetwork" style="shape=rect;strokeColor=none;strokeWidth=2;shadow=0;gradientColor=none;fontColor=#757575;align=left;html=1;fontStyle=0;spacingTop=3;fillColor=#EDE7F6;verticalAlign=top;fontSize=10;spacingLeft=10;spacing=0;" vertex="1" parent="WwBUQmElRAqw0r_cfJ5v-44">
          <mxGeometry width="210" height="60" relative="1" as="geometry">
            <mxPoint x="10" y="50" as="offset" />
          </mxGeometry>
        </mxCell>
        <mxCell id="WwBUQmElRAqw0r_cfJ5v-47" value="" style="edgeStyle=orthogonalEdgeStyle;fontSize=12;html=1;endArrow=blockThin;endFill=1;rounded=0;strokeWidth=2;endSize=4;startSize=4;dashed=1;dashPattern=1 3;strokeColor=#4284F3;exitX=1;exitY=0.5;exitDx=0;exitDy=0;entryX=0;entryY=0.5;entryDx=0;entryDy=0;" edge="1" parent="1" source="WwBUQmElRAqw0r_cfJ5v-3" target="WwBUQmElRAqw0r_cfJ5v-34">
          <mxGeometry width="100" relative="1" as="geometry">
            <mxPoint x="630" y="310" as="sourcePoint" />
            <mxPoint x="730" y="310" as="targetPoint" />
          </mxGeometry>
        </mxCell>
      </root>
    </mxGraphModel>
  </diagram>
</mxfile>
